# xmcd CD database file generated by OrangeCD 5.2
#
# Track frame offsets:
#	200
#	13757
#	25982
#	40172
#	54227
#	67150
#	79935
#	93477
#	108710
#	120500
#	131817
#	147460
#	159390
#	171392
#	183242
#	196155
#	207610
#	220192
#	233767
#	247767
#	260792
#
# Disc length: 3633 seconds
#
# Revision: 2
# Processed by: cddbd v1.5.1PL0 Copyright (c) Steve Scherf et al.
# Submitted via: OrangeCD 5.2
#
DISCID=360e2f15
DTITLE=Blue Sky Boys - There'll Come A Time - Can't You Hear That Nightbird Cry
DTITLE=ing?
DYEAR=1936
DGENRE=Country
TTITLE0=I'm Just Here To Get My Baby Out Of Jail
TTITLE1=Sunny Side Of Life
TTITLE2=There'll Come A Time
TTITLE3=Where The Soul Never Dies
TTITLE4=Midnight On The Stormy Deep
TTITLE5=Take Up Thy Cross
TTITLE6=Row Us Over The Tide
TTITLE7=Down On The Banks Of The Ohio
TTITLE8=I'm Troubled, I'm Troubled
TTITLE9=The Dying Boy's Prayer
TTITLE10=No One To Welcome Me Home
TTITLE11=Didn't They Crucify My Lord
TTITLE12=Only Let Me Walk With Thee
TTITLE13=Can't You Hear That Nightbird Crying?
TTITLE14=An Old Account Was Settled
TTITLE15=Sweet Allallee
TTITLE16=You Give Me Your Love
TTITLE17=I Believe It
TTITLE18=When The Ransomed Get Home
TTITLE19=Fair Eyed Ellen
TTITLE20=Somebody Makes Me Think Of You
EXTD=YEAR: 1936 ID3G:   2
EXTT0=
EXTT1=
EXTT2=
EXTT3=
EXTT4=
EXTT5=
EXTT6=
EXTT7=
EXTT8=
EXTT9=
EXTT10=
EXTT11=
EXTT12=
EXTT13=
EXTT14=
EXTT15=
EXTT16=
EXTT17=
EXTT18=
EXTT19=
EXTT20=
PLAYORDER=
